<svg width="50" height="50" viewBox="0 0 50 50" fill="none" xmlns="http://www.w3.org/2000/svg">
<rect x="1.50385" y="1.26367" width="46.6667" height="47.2326" rx="7" stroke="#50AE5C" stroke-width="2"/>
<path fill-rule="evenodd" clip-rule="evenodd" d="M36.8481 8.54423C35.4888 10.0425 33.7831 10.8722 28.8611 12.4299C23.7847 14.0364 21.6489 15.0021 19.3887 16.713C17.1753 18.3886 14.9576 21.1661 14.0337 23.4198C13.5201 24.6722 13.3282 25.6184 13.3254 26.9099C13.3224 28.2138 13.5165 29.1105 14.0377 30.2023C15.2 32.6372 18.1287 34.9776 20.2822 35.1925C20.4634 35.2107 20.6269 35.275 20.6455 35.3356C20.7049 35.5297 17.8248 37.3238 15.9955 38.2321C13.849 39.298 12.7097 39.6592 10.8966 39.8488C9.39647 40.0055 9.13981 40.1189 9.0134 40.6808C8.9039 41.1677 9.22574 41.6505 9.83502 41.9139L10.358 42.1398L11.2084 41.8978C13.6046 41.216 19.5792 37.6991 22.3752 35.3245C23.5693 34.3103 26.2863 31.6767 26.9605 30.8798C27.1375 30.6705 27.4027 30.3732 27.5498 30.219C27.6969 30.0649 28.3104 29.2945 28.9131 28.507C31.2685 25.4297 32.8379 22.7992 34.4818 19.1727C34.8103 18.4483 35.0198 18.3351 34.8894 18.9524C34.7194 19.7578 33.6148 23.0453 33.3411 23.5603C33.2796 23.6761 33.1123 24.0683 32.9695 24.4318C32.7138 25.0825 31.1494 28.1937 30.7548 28.8363C28.6337 32.2902 26.8454 34.5787 24.4972 36.8436C23.9514 37.3702 23.5047 37.8319 23.5047 37.8698C23.5047 38.0481 24.1717 38.7595 24.7371 39.1842C26.0335 40.1577 27.9854 40.7875 29.7069 40.7875C33.6523 40.7875 37.268 37.6336 38.9104 32.7599C39.7711 30.2056 40.1152 27.8449 40.1163 24.4869C40.1173 21.2127 39.8407 18.7321 39.0554 14.9751C38.5302 12.4629 37.3694 8.18628 37.2126 8.18628C37.1908 8.18628 37.0267 8.3473 36.8481 8.54423Z" fill="#50AE5C"/>
</svg>
